<svg xmlns="http://www.w3.org/2000/svg" width="256" height="256" viewBox="0 0 512 512"><rect width="100%" height="100%" fill="#0B1220"/>
    <defs>
      <linearGradient id="g-gold" x1="0" y1="0" x2="1" y2="1">
        <stop offset="0%" stop-color="#E9D387"/>
        <stop offset="45%" stop-color="#C9A227"/>
        <stop offset="100%" stop-color="#9E7E2B"/>
      </linearGradient>
      <radialGradient id="g-sheen" cx="35%" cy="30%" r="75%">
        <stop offset="0%" stop-color="#ffffff" stop-opacity="0.20"/>
        <stop offset="60%" stop-color="#ffffff" stop-opacity="0"/>
      </radialGradient>
      <filter id="f-soft" x="-20%" y="-20%" width="140%" height="140%">
        <feGaussianBlur in="SourceAlpha" stdDeviation="2" result="blur"/>
        <feOffset dx="0" dy="2" result="off"/>
        <feMerge>
          <feMergeNode in="off"/>
          <feMergeNode in="SourceGraphic"/>
        </feMerge>
      </filter>
      <filter id="f-inner" x="-20%" y="-20%" width="140%" height="140%">
        <feOffset dx="0" dy="1"/>
        <feGaussianBlur stdDeviation="1.2" result="blur"/>
        <feComposite in2="SourceAlpha" operator="arithmetic" k2="-1" k3="1"/>
        <feColorMatrix type="matrix" values="
          0 0 0 0 0
          0 0 0 0 0
          0 0 0 0 0
          0 0 0 0.6 0" />
        <feBlend mode="multiply" in2="SourceGraphic"/>
      </filter>
    </defs>
    <circle cx="256.0" cy="256.0" r="235.52" fill="none" stroke="url(#g-gold)" stroke-width="25.6" filter="url(#f-soft)"/><line x1="296.96" y1="256.0" x2="465.91999999999996" y2="256.0" stroke="#E9D387" stroke-width="7.168"/><line x1="284.963093757401" y1="284.963093757401" x2="404.43585550668007" y2="404.43585550668" stroke="#E9D387" stroke-width="7.168"/><line x1="256.0" y1="296.96" x2="256.0" y2="465.91999999999996" stroke="#E9D387" stroke-width="7.168"/><line x1="227.036906242599" y1="284.963093757401" x2="107.56414449331996" y2="404.43585550668007" stroke="#E9D387" stroke-width="7.168"/><line x1="215.04" y1="256.0" x2="46.08000000000001" y2="256.0" stroke="#E9D387" stroke-width="7.168"/><line x1="227.036906242599" y1="227.036906242599" x2="107.56414449331993" y2="107.56414449331996" stroke="#E9D387" stroke-width="7.168"/><line x1="256.0" y1="215.04" x2="255.99999999999997" y2="46.08000000000001" stroke="#E9D387" stroke-width="7.168"/><line x1="284.963093757401" y1="227.036906242599" x2="404.43585550668" y2="107.56414449331993" stroke="#E9D387" stroke-width="7.168"/>
      <path d="M 184.32 153.6
               L 215.04 112.63999999999999
               L 245.76 153.6
               L 276.48 112.63999999999999
               L 307.2 153.6
               L 327.68 153.6
               L 327.68 189.44
               L 184.32 189.44 Z"
            fill="url(#g-gold)" filter="url(#f-inner)"/>
    
      <path d="M 112.64 194.56
               C 235.52 92.16, 276.48 266.24, 399.36 215.04"
            stroke="#FFFFFF" stroke-width="20.48" fill="none" stroke-linecap="round"/>
      <path d="M 112.64 317.44
               C 235.52 419.84, 276.48 245.76, 399.36 296.96"
            stroke="#FFFFFF" stroke-width="20.48" fill="none" stroke-linecap="round"/>
    
      <path d="M 112.64 194.56
               C 235.52 92.16, 276.48 266.24, 399.36 215.04"
            stroke="url(#g-gold)" stroke-width="7.168" fill="none" stroke-linecap="round" stroke-dasharray="30.72,23.04"/>
      <path d="M 112.64 317.44
               C 235.52 419.84, 276.48 245.76, 399.36 296.96"
            stroke="url(#g-gold)" stroke-width="7.168" fill="none" stroke-linecap="round" stroke-dasharray="30.72,23.04"/>
    <circle cx="256.0" cy="256.0" r="250.88" fill="url(#g-sheen)" opacity="0.22"/></svg>